<?xml version="1.0" encoding="UTF-8" standalone="no"?>
<!DOCTYPE svg PUBLIC "-//W3C//DTD SVG 1.1//EN"
 "http://www.w3.org/Graphics/SVG/1.1/DTD/svg11.dtd">
<!-- Generated by graphviz version 2.43.0 (0)
 -->
<!-- Title: dependency&#45;cruiser output Pages: 1 -->
<svg width="337pt" height="408pt"
 viewBox="0.00 0.00 337.00 408.00" xmlns="http://www.w3.org/2000/svg" xmlns:xlink="http://www.w3.org/1999/xlink">
<g id="graph0" class="graph" transform="scale(1 1) rotate(0) translate(4 404)">
<title>dependency&#45;cruiser output</title>
<polygon fill="white" stroke="transparent" points="-4,4 -4,-404 333,-404 333,4 -4,4"/>
<g id="clust1" class="cluster">
<title>cluster_shared</title>
<path fill="#ffffff" stroke="black" stroke-width="2" d="M20,-8C20,-8 309,-8 309,-8 315,-8 321,-14 321,-20 321,-20 321,-380 321,-380 321,-386 315,-392 309,-392 309,-392 20,-392 20,-392 14,-392 8,-386 8,-380 8,-380 8,-20 8,-20 8,-14 14,-8 20,-8"/>
<text text-anchor="middle" x="164.5" y="-380.8" font-family="Helvetica,sans-Serif" font-weight="bold" font-size="9.00">shared</text>
</g>
<g id="clust2" class="cluster">
<title>cluster_shared/types</title>
<path fill="#ffffff" stroke="black" stroke-width="2" d="M28,-16C28,-16 301,-16 301,-16 307,-16 313,-22 313,-28 313,-28 313,-294 313,-294 313,-300 307,-306 301,-306 301,-306 28,-306 28,-306 22,-306 16,-300 16,-294 16,-294 16,-28 16,-28 16,-22 22,-16 28,-16"/>
<text text-anchor="middle" x="164.5" y="-294.8" font-family="Helvetica,sans-Serif" font-weight="bold" font-size="9.00">types</text>
</g>
<g id="clust3" class="cluster">
<title>cluster_shared/validation</title>
<path fill="#ffffff" stroke="black" stroke-width="2" d="M128,-314C128,-314 174,-314 174,-314 180,-314 186,-320 186,-326 186,-326 186,-354 186,-354 186,-360 180,-366 174,-366 174,-366 128,-366 128,-366 122,-366 116,-360 116,-354 116,-354 116,-326 116,-326 116,-320 122,-314 128,-314"/>
<text text-anchor="middle" x="151" y="-354.8" font-family="Helvetica,sans-Serif" font-weight="bold" font-size="9.00">validation</text>
</g>
<!-- shared/types/base.ts -->
<g id="node1" class="node">
<title>shared/types/base.ts</title>
<g id="a_node1"><a xlink:href="shared/types/base.ts" xlink:title="base.ts">
<path fill="#ddfeff" stroke="black" d="M172,-72C172,-72 130,-72 130,-72 127,-72 124,-69 124,-66 124,-66 124,-60 124,-60 124,-57 127,-54 130,-54 130,-54 172,-54 172,-54 175,-54 178,-57 178,-60 178,-60 178,-66 178,-66 178,-69 175,-72 172,-72"/>
<text text-anchor="start" x="134.5" y="-60.8" font-family="Helvetica,sans-Serif" font-size="9.00">base.ts</text>
</a>
</g>
</g>
<!-- shared/types/basic&#45;types.ts -->
<g id="node2" class="node">
<title>shared/types/basic&#45;types.ts</title>
<g id="a_node2"><a xlink:href="shared/types/basic-types.ts" xlink:title="basic&#45;types.ts">
<path fill="#ddfeff" stroke="black" d="M285,-83C285,-83 218,-83 218,-83 215,-83 212,-80 212,-77 212,-77 212,-71 212,-71 212,-68 215,-65 218,-65 218,-65 285,-65 285,-65 288,-65 291,-68 291,-71 291,-71 291,-77 291,-77 291,-80 288,-83 285,-83"/>
<text text-anchor="start" x="220" y="-71.8" font-family="Helvetica,sans-Serif" font-size="9.00">basic&#45;types.ts</text>
</a>
</g>
</g>
<!-- shared/types/base.ts&#45;&gt;shared/types/basic&#45;types.ts -->
<g id="edge1" class="edge">
<title>shared/types/base.ts&#45;&gt;shared/types/basic&#45;types.ts</title>
<path fill="none" stroke="#000000" stroke-width="2" stroke-opacity="0.200000" d="M178.14,-65.92C186.65,-66.87 196.35,-67.95 205.82,-69.01"/>
<polygon fill="#000000" fill-opacity="0.200000" stroke="#000000" stroke-width="2" stroke-opacity="0.200000" points="205.8,-71.12 212,-69.7 206.27,-66.95 205.8,-71.12"/>
</g>
<!-- shared/types/coordinates.ts -->
<g id="node3" class="node">
<title>shared/types/coordinates.ts</title>
<g id="a_node3"><a xlink:href="shared/types/coordinates.ts" xlink:title="coordinates.ts">
<path fill="#ccffcc" stroke="black" d="M98,-243C98,-243 30,-243 30,-243 27,-243 24,-240 24,-237 24,-237 24,-231 24,-231 24,-228 27,-225 30,-225 30,-225 98,-225 98,-225 101,-225 104,-228 104,-231 104,-231 104,-237 104,-237 104,-240 101,-243 98,-243"/>
<text text-anchor="start" x="32" y="-231.8" font-family="Helvetica,sans-Serif" font-size="9.00">coordinates.ts</text>
</a>
</g>
</g>
<!-- shared/types/events.ts -->
<g id="node4" class="node">
<title>shared/types/events.ts</title>
<g id="a_node4"><a xlink:href="shared/types/events.ts" xlink:title="events.ts">
<path fill="#ddfeff" stroke="black" d="M174,-146C174,-146 128,-146 128,-146 125,-146 122,-143 122,-140 122,-140 122,-134 122,-134 122,-131 125,-128 128,-128 128,-128 174,-128 174,-128 177,-128 180,-131 180,-134 180,-134 180,-140 180,-140 180,-143 177,-146 174,-146"/>
<text text-anchor="start" x="130" y="-134.8" font-family="Helvetica,sans-Serif" font-size="9.00">events.ts</text>
</a>
</g>
</g>
<!-- shared/types/web&#45;socket&#45;types.ts -->
<g id="node5" class="node">
<title>shared/types/web&#45;socket&#45;types.ts</title>
<g id="a_node5"><a xlink:href="shared/types/web-socket-types.ts" xlink:title="web&#45;socket&#45;types.ts">
<path fill="#ddfeff" stroke="black" d="M299,-213C299,-213 204,-213 204,-213 201,-213 198,-210 198,-207 198,-207 198,-201 198,-201 198,-198 201,-195 204,-195 204,-195 299,-195 299,-195 302,-195 305,-198 305,-201 305,-201 305,-207 305,-207 305,-210 302,-213 299,-213"/>
<text text-anchor="start" x="206" y="-201.8" font-family="Helvetica,sans-Serif" font-size="9.00">web&#45;socket&#45;types.ts</text>
</a>
</g>
</g>
<!-- shared/types/events.ts&#45;&gt;shared/types/web&#45;socket&#45;types.ts -->
<g id="edge2" class="edge">
<title>shared/types/events.ts&#45;&gt;shared/types/web&#45;socket&#45;types.ts</title>
<path fill="none" stroke="#000000" stroke-width="2" stroke-opacity="0.200000" d="M174.74,-146.03C178.59,-147.84 182.47,-149.85 186,-152 204.44,-163.23 223.42,-179.16 235.98,-190.43"/>
<polygon fill="#000000" fill-opacity="0.200000" stroke="#000000" stroke-width="2" stroke-opacity="0.200000" points="234.77,-192.16 240.62,-194.64 237.59,-189.06 234.77,-192.16"/>
</g>
<!-- shared/types/game.ts -->
<g id="node6" class="node">
<title>shared/types/game.ts</title>
<g id="a_node6"><a xlink:href="shared/types/game.ts" xlink:title="game.ts">
<path fill="#ddfeff" stroke="black" d="M172,-42C172,-42 130,-42 130,-42 127,-42 124,-39 124,-36 124,-36 124,-30 124,-30 124,-27 127,-24 130,-24 130,-24 172,-24 172,-24 175,-24 178,-27 178,-30 178,-30 178,-36 178,-36 178,-39 175,-42 172,-42"/>
<text text-anchor="start" x="132.5" y="-30.8" font-family="Helvetica,sans-Serif" font-size="9.00">game.ts</text>
</a>
</g>
</g>
<!-- shared/types/game.ts&#45;&gt;shared/types/basic&#45;types.ts -->
<g id="edge3" class="edge">
<title>shared/types/game.ts&#45;&gt;shared/types/basic&#45;types.ts</title>
<path fill="none" stroke="#000000" stroke-width="2" stroke-opacity="0.200000" d="M173.86,-42.1C188.4,-48.15 207.6,-56.15 223.15,-62.62"/>
<polygon fill="#000000" fill-opacity="0.200000" stroke="#000000" stroke-width="2" stroke-opacity="0.200000" points="222.35,-64.56 228.7,-64.93 223.97,-60.68 222.35,-64.56"/>
</g>
<!-- shared/types/index.ts -->
<g id="node7" class="node">
<title>shared/types/index.ts</title>
<g id="a_node7"><a xlink:href="shared/types/index.ts" xlink:title="index.ts">
<path fill="#ddfeff" stroke="black" d="M85,-176C85,-176 43,-176 43,-176 40,-176 37,-173 37,-170 37,-170 37,-164 37,-164 37,-161 40,-158 43,-158 43,-158 85,-158 85,-158 88,-158 91,-161 91,-164 91,-164 91,-170 91,-170 91,-173 88,-176 85,-176"/>
<text text-anchor="start" x="45.5" y="-164.8" font-family="Helvetica,sans-Serif" font-size="9.00">index.ts</text>
</a>
</g>
</g>
<!-- shared/types/index.ts&#45;&gt;shared/types/base.ts -->
<g id="edge5" class="edge">
<title>shared/types/index.ts&#45;&gt;shared/types/base.ts</title>
<path fill="none" stroke="#000000" stroke-width="2" stroke-opacity="0.200000" d="M68.44,-157.87C75.25,-140.87 91.87,-103.99 116,-81 118.12,-78.98 120.52,-77.12 123.03,-75.42"/>
<polygon fill="#000000" fill-opacity="0.200000" stroke="#000000" stroke-width="2" stroke-opacity="0.200000" points="129.4,-73.98 123.19,-75.33 127.21,-70.4 129.4,-73.98"/>
</g>
<!-- shared/types/index.ts&#45;&gt;shared/types/basic&#45;types.ts -->
<g id="edge6" class="edge">
<title>shared/types/index.ts&#45;&gt;shared/types/basic&#45;types.ts</title>
<path fill="none" stroke="#000000" stroke-width="2" stroke-opacity="0.200000" d="M68.35,-157.75C74.78,-141.42 90.55,-107.72 116,-92 123.6,-87.3 169.44,-81.85 205.52,-78.19"/>
<polygon fill="#000000" fill-opacity="0.200000" stroke="#000000" stroke-width="2" stroke-opacity="0.200000" points="211.88,-79.66 205.7,-78.17 211.46,-75.48 211.88,-79.66"/>
</g>
<!-- shared/types/index.ts&#45;&gt;shared/types/events.ts -->
<g id="edge7" class="edge">
<title>shared/types/index.ts&#45;&gt;shared/types/events.ts</title>
<path fill="none" stroke="#000000" stroke-width="2" stroke-opacity="0.200000" d="M90.5,-158C99.25,-154.91 109.14,-151.42 118.32,-148.18"/>
<polygon fill="#000000" fill-opacity="0.200000" stroke="#000000" stroke-width="2" stroke-opacity="0.200000" points="124.92,-148.08 118.56,-148.1 123.52,-144.12 124.92,-148.08"/>
</g>
<!-- shared/types/index.ts&#45;&gt;shared/types/web&#45;socket&#45;types.ts -->
<g id="edge14" class="edge">
<title>shared/types/index.ts&#45;&gt;shared/types/web&#45;socket&#45;types.ts</title>
<path fill="none" stroke="#000000" stroke-width="2" stroke-opacity="0.200000" d="M73.81,-176.17C82.75,-185.99 96.33,-202.41 104,-219 114.14,-240.92 97.13,-256.93 116,-272 140.31,-291.42 157.42,-284.28 186,-272 211.25,-261.15 231.26,-235.01 241.95,-218.49"/>
<polygon fill="#000000" fill-opacity="0.200000" stroke="#000000" stroke-width="2" stroke-opacity="0.200000" points="246.99,-214.4 242.02,-218.37 243.44,-212.17 246.99,-214.4"/>
</g>
<!-- shared/types/index.ts&#45;&gt;shared/types/game.ts -->
<g id="edge8" class="edge">
<title>shared/types/index.ts&#45;&gt;shared/types/game.ts</title>
<path fill="none" stroke="#000000" stroke-width="2" stroke-opacity="0.200000" d="M66.53,-157.98C70.64,-136.26 83.91,-80.43 116,-48 116.85,-47.14 117.76,-46.33 118.71,-45.55"/>
<polygon fill="#000000" fill-opacity="0.200000" stroke="#000000" stroke-width="2" stroke-opacity="0.200000" points="124.98,-43.78 118.85,-45.46 122.6,-40.32 124.98,-43.78"/>
</g>
<!-- shared/validation/game.ts -->
<g id="node8" class="node">
<title>shared/validation/game.ts</title>
<g id="a_node8"><a xlink:href="shared/validation/game.ts" xlink:title="game.ts">
<path fill="#ddfeff" stroke="black" d="M172,-340C172,-340 130,-340 130,-340 127,-340 124,-337 124,-334 124,-334 124,-328 124,-328 124,-325 127,-322 130,-322 130,-322 172,-322 172,-322 175,-322 178,-325 178,-328 178,-328 178,-334 178,-334 178,-337 175,-340 172,-340"/>
<text text-anchor="start" x="132.5" y="-328.8" font-family="Helvetica,sans-Serif" font-size="9.00">game.ts</text>
</a>
</g>
</g>
<!-- shared/types/index.ts&#45;&gt;shared/validation/game.ts -->
<g id="edge4" class="edge">
<title>shared/types/index.ts&#45;&gt;shared/validation/game.ts</title>
<path fill="none" stroke="#000000" stroke-width="2" stroke-opacity="0.200000" d="M70.66,-176.24C79.43,-187.33 96.14,-205.78 104,-225 117.72,-258.56 99.05,-276.94 116.35,-311.19"/>
<polygon fill="#000000" fill-opacity="0.200000" stroke="#000000" stroke-width="2" stroke-opacity="0.200000" points="118.81,-319.39 123.69,-323.46 122.41,-317.23 118.81,-319.39"/>
<polyline fill="none" stroke="#000000" stroke-width="2" stroke-opacity="0.200000" points="120.61,-318.31 119.07,-315.74 "/>
<ellipse fill="none" stroke="#000000" stroke-width="2" stroke-opacity="0.200000" cx="117.84" cy="-313.68" rx="2.4" ry="2.4"/>
</g>
<!-- shared/types/moves.ts -->
<g id="node9" class="node">
<title>shared/types/moves.ts</title>
<g id="a_node9"><a xlink:href="shared/types/moves.ts" xlink:title="moves.ts">
<path fill="#ddfeff" stroke="black" d="M173.5,-176C173.5,-176 128.5,-176 128.5,-176 125.5,-176 122.5,-173 122.5,-170 122.5,-170 122.5,-164 122.5,-164 122.5,-161 125.5,-158 128.5,-158 128.5,-158 173.5,-158 173.5,-158 176.5,-158 179.5,-161 179.5,-164 179.5,-164 179.5,-170 179.5,-170 179.5,-173 176.5,-176 173.5,-176"/>
<text text-anchor="start" x="130.5" y="-164.8" font-family="Helvetica,sans-Serif" font-size="9.00">moves.ts</text>
</a>
</g>
</g>
<!-- shared/types/index.ts&#45;&gt;shared/types/moves.ts -->
<g id="edge9" class="edge">
<title>shared/types/index.ts&#45;&gt;shared/types/moves.ts</title>
<path fill="none" stroke="#000000" stroke-width="2" stroke-opacity="0.200000" d="M91.43,-167C99.27,-167 107.97,-167 116.22,-167"/>
<polygon fill="#000000" fill-opacity="0.200000" stroke="#000000" stroke-width="2" stroke-opacity="0.200000" points="122.41,-169.1 116.41,-167 122.41,-164.9 122.41,-169.1"/>
</g>
<!-- shared/types/payloads.ts -->
<g id="node10" class="node">
<title>shared/types/payloads.ts</title>
<g id="a_node10"><a xlink:href="shared/types/payloads.ts" xlink:title="payloads.ts">
<path fill="#ddfeff" stroke="black" d="M179,-206C179,-206 123,-206 123,-206 120,-206 117,-203 117,-200 117,-200 117,-194 117,-194 117,-191 120,-188 123,-188 123,-188 179,-188 179,-188 182,-188 185,-191 185,-194 185,-194 185,-200 185,-200 185,-203 182,-206 179,-206"/>
<text text-anchor="start" x="125" y="-194.8" font-family="Helvetica,sans-Serif" font-size="9.00">payloads.ts</text>
</a>
</g>
</g>
<!-- shared/types/index.ts&#45;&gt;shared/types/payloads.ts -->
<g id="edge10" class="edge">
<title>shared/types/index.ts&#45;&gt;shared/types/payloads.ts</title>
<path fill="none" stroke="#000000" stroke-width="2" stroke-opacity="0.200000" d="M90.5,-176C99.25,-179.09 109.14,-182.58 118.32,-185.82"/>
<polygon fill="#000000" fill-opacity="0.200000" stroke="#000000" stroke-width="2" stroke-opacity="0.200000" points="123.52,-189.88 118.56,-185.9 124.92,-185.92 123.52,-189.88"/>
</g>
<!-- shared/types/redis.ts -->
<g id="node11" class="node">
<title>shared/types/redis.ts</title>
<g id="a_node11"><a xlink:href="shared/types/redis.ts" xlink:title="redis.ts">
<path fill="#ddfeff" stroke="black" d="M172,-236C172,-236 130,-236 130,-236 127,-236 124,-233 124,-230 124,-230 124,-224 124,-224 124,-221 127,-218 130,-218 130,-218 172,-218 172,-218 175,-218 178,-221 178,-224 178,-224 178,-230 178,-230 178,-233 175,-236 172,-236"/>
<text text-anchor="start" x="134" y="-224.8" font-family="Helvetica,sans-Serif" font-size="9.00">redis.ts</text>
</a>
</g>
</g>
<!-- shared/types/index.ts&#45;&gt;shared/types/redis.ts -->
<g id="edge11" class="edge">
<title>shared/types/index.ts&#45;&gt;shared/types/redis.ts</title>
<path fill="none" stroke="#000000" stroke-width="2" stroke-opacity="0.200000" d="M73.71,-176.21C83.35,-186.03 99.69,-201.56 116,-212 117.68,-213.08 119.46,-214.11 121.28,-215.1"/>
<polygon fill="#000000" fill-opacity="0.200000" stroke="#000000" stroke-width="2" stroke-opacity="0.200000" points="125.87,-219.8 121.48,-215.2 127.77,-216.06 125.87,-219.8"/>
</g>
<!-- shared/types/replay.ts -->
<g id="node12" class="node">
<title>shared/types/replay.ts</title>
<g id="a_node12"><a xlink:href="shared/types/replay.ts" xlink:title="replay.ts">
<path fill="#ddfeff" stroke="black" d="M172,-266C172,-266 130,-266 130,-266 127,-266 124,-263 124,-260 124,-260 124,-254 124,-254 124,-251 127,-248 130,-248 130,-248 172,-248 172,-248 175,-248 178,-251 178,-254 178,-254 178,-260 178,-260 178,-263 175,-266 172,-266"/>
<text text-anchor="start" x="132" y="-254.8" font-family="Helvetica,sans-Serif" font-size="9.00">replay.ts</text>
</a>
</g>
</g>
<!-- shared/types/index.ts&#45;&gt;shared/types/replay.ts -->
<g id="edge12" class="edge">
<title>shared/types/index.ts&#45;&gt;shared/types/replay.ts</title>
<path fill="none" stroke="#000000" stroke-width="2" stroke-opacity="0.200000" d="M72.67,-176.25C80.9,-186.4 94.13,-203.34 104,-219 110.15,-228.76 107.58,-234.12 116,-242 116.99,-242.93 118.06,-243.81 119.17,-244.64"/>
<polygon fill="#000000" fill-opacity="0.200000" stroke="#000000" stroke-width="2" stroke-opacity="0.200000" points="123.16,-249.74 119.27,-244.71 125.45,-246.21 123.16,-249.74"/>
</g>
<!-- shared/types/state.ts -->
<g id="node13" class="node">
<title>shared/types/state.ts</title>
<g id="a_node13"><a xlink:href="shared/types/state.ts" xlink:title="state.ts">
<path fill="#ddfeff" stroke="black" d="M172,-116C172,-116 130,-116 130,-116 127,-116 124,-113 124,-110 124,-110 124,-104 124,-104 124,-101 127,-98 130,-98 130,-98 172,-98 172,-98 175,-98 178,-101 178,-104 178,-104 178,-110 178,-110 178,-113 175,-116 172,-116"/>
<text text-anchor="start" x="134" y="-104.8" font-family="Helvetica,sans-Serif" font-size="9.00">state.ts</text>
</a>
</g>
</g>
<!-- shared/types/index.ts&#45;&gt;shared/types/state.ts -->
<g id="edge13" class="edge">
<title>shared/types/index.ts&#45;&gt;shared/types/state.ts</title>
<path fill="none" stroke="#000000" stroke-width="2" stroke-opacity="0.200000" d="M73.71,-157.79C83.35,-147.97 99.69,-132.44 116,-122 117.68,-120.92 119.46,-119.89 121.28,-118.9"/>
<polygon fill="#000000" fill-opacity="0.200000" stroke="#000000" stroke-width="2" stroke-opacity="0.200000" points="127.77,-117.94 121.48,-118.8 125.87,-114.2 127.77,-117.94"/>
</g>
<!-- shared/validation/game.ts&#45;&gt;shared/types/index.ts -->
<g id="edge16" class="edge">
<title>shared/validation/game.ts&#45;&gt;shared/types/index.ts</title>
<path fill="none" stroke="#000000" stroke-width="2" stroke-opacity="0.200000" d="M138.96,-321.84C131.22,-317.28 121.34,-311.43 116,-303 94.41,-268.91 119.27,-250.35 104,-213 100.14,-203.57 94.15,-194.32 88.02,-186.56"/>
<polygon fill="#000000" fill-opacity="0.200000" stroke="#000000" stroke-width="2" stroke-opacity="0.200000" points="84.38,-179.23 78.85,-176.1 81.22,-182 84.38,-179.23"/>
<polyline fill="none" stroke="#000000" stroke-width="2" stroke-opacity="0.200000" points="82.8,-180.61 84.78,-182.87 "/>
<ellipse fill="none" stroke="#000000" stroke-width="2" stroke-opacity="0.200000" cx="86.36" cy="-184.67" rx="2.4" ry="2.4"/>
</g>
<!-- shared/types/state.ts&#45;&gt;shared/types/basic&#45;types.ts -->
<g id="edge15" class="edge">
<title>shared/types/state.ts&#45;&gt;shared/types/basic&#45;types.ts</title>
<path fill="none" stroke="#000000" stroke-width="2" stroke-opacity="0.200000" d="M178.14,-98.24C190.3,-94.17 204.89,-89.28 217.77,-84.97"/>
<polygon fill="#000000" fill-opacity="0.200000" stroke="#000000" stroke-width="2" stroke-opacity="0.200000" points="218.53,-86.93 223.55,-83.03 217.2,-82.94 218.53,-86.93"/>
</g>
</g>
</svg>
